/* XPM */
static const char * info_xpm[] = {
"18 18 50 1",
" 	c #E5E4E8",
".	c #FFFFFF",
"+	c #CBD7E7",
"@	c #6B90BC",
"#	c #6C90BC",
"$	c #D0DCEA",
"%	c #82A1C6",
"&	c #547EB1",
"*	c #527CB0",
"=	c #8EAACC",
"-	c #9DB5D3",
";	c #507BAF",
">	c #A5BBD6",
",	c #F3F6FA",
"'	c #B3C7DD",
")	c #B6C9DE",
"!	c #F7F9FC",
"~	c #9EB6D3",
"{	c #98B2D1",
"]	c #A0B8D5",
"^	c #9AB4D2",
"/	c #C2D1E4",
"(	c #5C84B5",
"_	c #517BAF",
":	c #5780B2",
"<	c #4D79AD",
"[	c #9AB3D1",
"}	c #91ACCE",
"|	c #6C90BD",
"1	c #5D84B5",
"2	c #567FB2",
"3	c #9FB7D4",
"4	c #97B1D1",
"5	c #97B1D0",
"6	c #98B1D1",
"7	c #A0B7D4",
"8	c #B7C9DF",
"9	c #7A9BC3",
"0	c #5B83B4",
"a	c #5A82B4",
"b	c #7D9DC4",
"c	c #BBCCE0",
"d	c #557EB1",
"e	c #5D85B5",
"f	c #537DB1",
"g	c #6389B8",
"h	c #7698C1",
"i	c #688EBB",
"j	c #688DBA",
"k	c #7B9CC4",
"                  ",
"                  ",
"      .+@#$       ",
"      .%&*=       ",
"      .-;;>       ",
"      .,')!       ",
"      ~{]^/       ",
"      (_:<[       ",
"      }|123       ",
"      .4:23       ",
"      .5:23       ",
"      .5:23       ",
"      .6:27       ",
"      890abc      ",
"      1d1efg      ",
"      hi@@jk      ",
"                  ",
"                  "};
