/* XPM */
static char * C:\Users\Xangis\code\SpaceTheremin\info14px_xpm[] = {
"14 14 51 1",
" 	c None",
".	c #E5E4E8",
"+	c #FFFFFF",
"@	c #CBD7E7",
"#	c #6B90BC",
"$	c #6C90BC",
"%	c #D0DCEA",
"&	c #82A1C6",
"*	c #547EB1",
"=	c #527CB0",
"-	c #8EAACC",
";	c #9DB5D3",
">	c #507BAF",
",	c #A5BBD6",
"'	c #F3F6FA",
")	c #B3C7DD",
"!	c #B6C9DE",
"~	c #F7F9FC",
"{	c #9EB6D3",
"]	c #98B2D1",
"^	c #A0B8D5",
"/	c #9AB4D2",
"(	c #C2D1E4",
"_	c #5C84B5",
":	c #517BAF",
"<	c #5780B2",
"[	c #4D79AD",
"}	c #9AB3D1",
"|	c #91ACCE",
"1	c #6C90BD",
"2	c #5D84B5",
"3	c #567FB2",
"4	c #9FB7D4",
"5	c #97B1D1",
"6	c #97B1D0",
"7	c #98B1D1",
"8	c #A0B7D4",
"9	c #B7C9DF",
"0	c #7A9BC3",
"a	c #5B83B4",
"b	c #5A82B4",
"c	c #7D9DC4",
"d	c #BBCCE0",
"e	c #557EB1",
"f	c #5D85B5",
"g	c #537DB1",
"h	c #6389B8",
"i	c #7698C1",
"j	c #688EBB",
"k	c #688DBA",
"l	c #7B9CC4",
"....+@#$%.....",
"....+&*=-.....",
"....+;>>,.....",
"....+')!~.....",
"....{]^/(.....",
"...._:<[}.....",
"....|1234.....",
"....+5<34.....",
"....+6<34.....",
"....+6<34.....",
"....+7<38.....",
"....90abcd....",
"....2e2fgh....",
"....ij##kl...."};
